<?xml version="1.0" encoding="utf-8"?>
<!-- Generator: Adobe Illustrator 16.0.0, SVG Export Plug-In . SVG Version: 6.00 Build 0)  -->
<!DOCTYPE svg PUBLIC "-//W3C//DTD SVG 1.1 Tiny//EN" "http://www.w3.org/Graphics/SVG/1.1/DTD/svg11-tiny.dtd">
<svg version="1.1" baseProfile="tiny" id="Layer_1" xmlns="http://www.w3.org/2000/svg" xmlns:xlink="http://www.w3.org/1999/xlink"
	 x="0px" y="0px" width="24px" height="24px" viewBox="0 0 24 24" xml:space="preserve">
<g>
	<path d="M8.447,12.791c0.843-0.371,0.993-0.553,1.229-1.5c0.203-0.793,0.123-1.074-0.564-1.836C8.634,8.92,8.162,8.393,7.679,7.859
		c-0.327-0.367-0.61-0.684-0.982-0.684c-0.444,0-0.703,0.426-1.001,0.92c-0.833,1.361-1.184,2.924-1.014,4.521
		c0.074,0.664,0.151,1.35,0.828,1.35c0.246,0,0.521-0.102,1.01-0.316L8.447,12.791z M5.574,13.158
		c-0.043-0.148-0.079-0.465-0.097-0.629c-0.151-1.416,0.161-2.807,0.902-4.018C6.44,8.408,6.608,8.133,6.713,8.01
		C6.822,8.1,6.999,8.299,7.084,8.395c0.484,0.533,0.955,1.061,1.492,1.662c0.46,0.51,0.458,0.52,0.324,1.037
		c-0.175,0.701-0.175,0.701-0.776,0.965L6.195,12.92C6.038,12.988,5.734,13.121,5.574,13.158z"/>
	<path d="M9.817,8.9c0.477,0.521,0.773,0.74,1.38,0.74c0.125,0,0.269-0.01,0.439-0.025c0.846-0.082,1.066-0.238,1.568-1.109
		c0.372-0.633,0.745-1.273,1.107-1.91c0.238-0.408,0.463-0.793,0.311-1.158c-0.142-0.336-0.512-0.455-0.979-0.572
		c-1.584-0.41-3.324-0.254-4.819,0.432C8.222,5.574,7.851,5.77,7.773,6.148c-0.08,0.385,0.202,0.697,0.561,1.098
		C8.836,7.791,9.325,8.34,9.817,8.9z M9.159,6.023c1.328-0.609,2.875-0.748,4.286-0.385c0.216,0.055,0.337,0.096,0.405,0.123
		c-0.053,0.129-0.182,0.35-0.231,0.436c-0.362,0.637-0.733,1.273-1.105,1.906c-0.38,0.66-0.391,0.66-0.954,0.715
		c-0.14,0.014-0.259,0.023-0.362,0.023c-0.29,0-0.389-0.043-0.784-0.477C9.921,7.807,9.429,7.254,8.925,6.707
		c-0.088-0.098-0.253-0.281-0.33-0.395C8.734,6.219,9.033,6.082,9.159,6.023z"/>
	<path d="M21.778,12.865c1.22-0.186,1.674-0.369,1.603-1.572c-0.049-1.158-0.48-1.365-1.841-1.436
		c-0.79-0.043-0.82-0.045-1.181-1.049c-0.322-0.916-0.322-0.916,0.325-1.484c0.967-0.859,1.157-1.279,0.469-2.232
		c-0.225-0.313-0.504-0.703-0.996-0.703c-0.323,0-0.656,0.16-1.239,0.496c-0.329,0.191-0.563,0.313-0.718,0.313
		c-0.16,0-0.374-0.148-0.739-0.438c-0.918-0.727-0.907-0.764-0.739-1.377c0.363-1.303,0.388-1.797-0.758-2.23
		c-0.281-0.111-0.533-0.205-0.775-0.205c-0.616,0-0.901,0.564-1.297,1.348c-0.26,0.52-0.275,0.551-0.808,0.551
		c-0.159,0-0.347-0.008-0.572-0.021c-1.015-0.057-1.015-0.057-1.267-0.855c-0.226-0.719-0.438-1.396-1.226-1.396
		c-0.148,0-0.326,0.025-0.551,0.07C8.233,0.92,8.172,1.357,8.305,2.637c0.092,0.82,0.092,0.82-0.637,1.188
		C7.361,3.979,7.145,4.076,7.015,4.076c-0.121,0-0.279-0.107-0.626-0.426C5.882,3.184,5.518,2.879,5.095,2.879
		c-0.372,0-0.659,0.229-0.996,0.529C3.208,4.205,3.39,4.637,4.141,5.668C4.611,6.303,4.611,6.303,4.06,7.244
		c-0.442,0.74-0.55,0.779-0.795,0.779c-0.146,0-0.321-0.025-0.543-0.063C2.351,7.9,2.076,7.863,1.853,7.863
		c-0.826,0-0.985,0.584-1.126,1.102c-0.314,1.182-0.015,1.436,1.299,1.932c0.729,0.277,0.729,0.277,0.782,1.354
		c0.044,0.982,0.044,0.982-0.649,1.291c-1.316,0.564-1.61,0.834-1.241,1.992c0.16,0.49,0.341,1.043,1.118,1.043
		c0.27,0,0.609-0.061,1.067-0.158c0.192-0.041,0.391-0.078,0.537-0.078c0.221,0,0.342,0.061,0.83,0.742
		c0.576,0.811,0.567,0.824,0.104,1.531c-0.698,1.053-0.873,1.523,0.067,2.297c0.329,0.268,0.608,0.471,0.954,0.471
		c0.442,0,0.795-0.334,1.335-0.879c0.402-0.404,0.557-0.516,0.721-0.516c0.166,0,0.419,0.09,0.806,0.25
		c0.942,0.379,0.942,0.379,0.93,1.305c-0.008,1.277,0.104,1.734,1.399,1.863c0.141,0.014,0.263,0.023,0.37,0.023
		c0.908,0,1.055-0.715,1.242-1.617c0.18-0.85,0.191-0.9,1.177-1.092c0.325-0.063,0.526-0.09,0.673-0.09
		c0.243,0,0.347,0.031,0.727,0.633c0.469,0.73,0.793,1.176,1.341,1.176c0.259,0,0.514-0.104,0.836-0.27
		c1.081-0.533,1-1.063,0.516-2.33c-0.288-0.738-0.3-0.766,0.416-1.449c0.449-0.428,0.628-0.551,0.796-0.551
		c0.162,0,0.414,0.102,0.744,0.254c0.565,0.256,0.908,0.387,1.211,0.387c0.564,0,0.828-0.449,1.062-0.848
		c0.604-1.041,0.288-1.395-0.848-2.219c-0.551-0.396-0.65-0.469-0.417-1.445C20.857,13.023,20.89,12.994,21.778,12.865z
		 M20.578,16.059c0.917,0.666,0.917,0.666,0.626,1.168c-0.246,0.42-0.311,0.453-0.371,0.453c-0.171,0-0.543-0.164-0.878-0.316
		c-1.167-0.537-1.628-0.311-2.425,0.445c-0.929,0.887-1.025,1.256-0.61,2.316c0.406,1.064,0.406,1.064-0.128,1.328
		c-0.167,0.086-0.372,0.184-0.478,0.184c-0.139,0-0.417-0.416-0.666-0.805c-0.37-0.588-0.688-1.002-1.401-1.002
		c-0.202,0-0.44,0.029-0.824,0.104c-1.268,0.246-1.555,0.518-1.808,1.713c-0.203,0.98-0.262,0.98-0.459,0.98
		c-0.083,0-0.179-0.008-0.29-0.02c-0.686-0.066-0.686-0.066-0.679-1.059c0.017-1.266-0.184-1.555-1.429-2.055
		c-0.499-0.205-0.807-0.309-1.107-0.309c-0.504,0-0.838,0.299-1.289,0.754c-0.222,0.225-0.636,0.643-0.767,0.643
		c-0.089,0-0.352-0.213-0.447-0.291c-0.469-0.387-0.469-0.387,0.095-1.238c0.657-1.002,0.639-1.367-0.121-2.436
		c-0.48-0.67-0.82-1.078-1.481-1.078c-0.207,0-0.43,0.039-0.702,0.096c-0.344,0.074-0.69,0.141-0.901,0.141
		c-0.174,0.004-0.197,0.002-0.356-0.486c-0.188-0.592-0.188-0.592,0.8-1.014c1.017-0.457,1.186-0.764,1.127-2.064
		c-0.063-1.295-0.19-1.641-1.298-2.063c-0.972-0.367-0.972-0.367-0.81-0.975c0.139-0.51,0.151-0.51,0.354-0.51
		c0.18,0,0.417,0.035,0.74,0.086c0.273,0.045,0.491,0.072,0.672,0.072c0.731,0,1.047-0.441,1.483-1.17
		c0.713-1.217,0.718-1.539,0.038-2.457C4.201,4.391,4.201,4.391,4.632,4.006c0.11-0.098,0.367-0.328,0.463-0.328
		c0.143,0,0.554,0.379,0.753,0.563c0.406,0.371,0.728,0.635,1.167,0.635c0.293,0,0.571-0.113,1.014-0.336
		C9.059,4.02,9.229,3.703,9.1,2.553C8.999,1.568,8.999,1.568,9.636,1.426c0.154-0.031,0.278-0.053,0.383-0.053
		c0.116,0,0.2,0,0.463,0.836c0.359,1.141,0.638,1.34,1.986,1.414c0.243,0.014,0.445,0.021,0.616,0.021
		c0.93,0,1.178-0.303,1.522-0.99c0.171-0.34,0.458-0.906,0.582-0.906c0.108,0,0.35,0.096,0.485,0.15
		c0.571,0.215,0.571,0.215,0.276,1.271c-0.271,0.986-0.119,1.318,1.013,2.217c0.801,0.637,1.297,0.811,2.357,0.189
		c0.218-0.127,0.671-0.387,0.837-0.387c0.071,0,0.215,0.186,0.347,0.371c0.376,0.52,0.376,0.52-0.349,1.164
		c-0.956,0.84-0.958,1.195-0.55,2.352c0.432,1.203,0.673,1.514,1.893,1.58c1.058,0.055,1.058,0.055,1.084,0.678
		c0.035,0.594,0.035,0.594-0.921,0.738c-1.277,0.186-1.521,0.512-1.809,1.707C19.564,14.984,19.707,15.434,20.578,16.059z"/>
	<path d="M11.729,15.42c-0.104-0.977-0.215-1.15-1.074-1.684c-0.689-0.439-1.008-0.49-1.863-0.117l-1.891,0.846
		c-0.546,0.238-1.018,0.443-1.11,0.867c-0.089,0.41,0.204,0.764,0.689,1.309c1.042,1.172,2.451,1.977,3.962,2.264
		c0.302,0.063,0.528,0.1,0.72,0.1c0.098,0,0.396,0,0.607-0.234c0.252-0.279,0.229-0.719,0.167-1.305
		C11.87,16.779,11.803,16.104,11.729,15.42z M11.162,18.205c-0.137,0-0.32-0.035-0.565-0.084c-1.344-0.258-2.594-0.971-3.519-2.012
		c-0.143-0.16-0.477-0.535-0.523-0.563c0.07-0.088,0.488-0.271,0.669-0.352l1.891-0.846c0.271-0.117,0.471-0.201,0.583-0.201
		c0.099,0,0.243,0.08,0.53,0.264c0.63,0.393,0.63,0.393,0.705,1.092c0.074,0.684,0.141,1.355,0.207,2.041
		C11.183,17.947,11.188,18.186,11.162,18.205z"/>
	<path d="M17.214,7.035c-0.472-0.529-0.785-0.85-1.169-0.85c-0.454,0-0.708,0.438-0.977,0.9c-0.371,0.646-0.743,1.291-1.112,1.93
		c-0.489,0.834-0.501,1.039-0.102,1.834c0.457,0.916,0.64,1.068,1.507,1.252l2.084,0.445c0.357,0.078,0.604,0.123,0.81,0.123
		c0.095,0,0.384,0,0.593-0.229c0.245-0.27,0.228-0.668,0.173-1.238C18.89,9.643,18.265,8.199,17.214,7.035z M18.255,11.871
		c-0.132,0-0.352-0.043-0.642-0.105l-2.085-0.445c-0.61-0.131-0.61-0.131-0.958-0.828c-0.255-0.508-0.255-0.508,0.076-1.074
		c0.372-0.641,0.744-1.287,1.114-1.932c0.063-0.107,0.213-0.365,0.306-0.475c0.148,0.105,0.434,0.426,0.552,0.557
		c0.935,1.037,1.489,2.316,1.605,3.707C18.259,11.645,18.264,11.865,18.255,11.871z"/>
	<path d="M17.13,13.398c-0.645-0.133-1.281-0.266-1.92-0.408c-0.961-0.207-1.243-0.041-1.873,0.518
		c-0.733,0.656-0.814,0.857-0.718,1.805l0.214,2.068c0.062,0.615,0.139,1.383,0.872,1.383c0.268,0,0.563-0.111,1.086-0.346
		c1.432-0.637,2.638-1.754,3.396-3.146c0.251-0.465,0.43-0.85,0.266-1.209C18.278,13.68,17.817,13.553,17.13,13.398z M17.483,14.891
		c-0.674,1.238-1.746,2.23-3.019,2.797c-0.2,0.09-0.615,0.275-0.705,0.311c-0.032-0.043-0.08-0.199-0.131-0.701l-0.214-2.068
		c-0.067-0.658-0.067-0.658,0.454-1.123c0.417-0.371,0.493-0.422,0.63-0.422c0.119,0,0.308,0.039,0.539,0.09
		c0.641,0.141,1.281,0.275,1.924,0.408c0.17,0.037,0.688,0.152,0.754,0.178C17.716,14.426,17.638,14.605,17.483,14.891z"/>
	<path d="M12.921,10.881c-0.511-0.57-1.456-0.629-2.035-0.121c-0.591,0.531-0.642,1.443-0.113,2.035
		c0.277,0.309,0.672,0.486,1.084,0.486c0.354,0,0.693-0.131,0.951-0.365C13.4,12.385,13.45,11.471,12.921,10.881z M12.271,12.322
		c-0.248,0.225-0.673,0.195-0.902-0.061c-0.235-0.264-0.212-0.67,0.048-0.902c0.118-0.105,0.27-0.162,0.426-0.162
		c0.186,0,0.357,0.076,0.482,0.217C12.564,11.682,12.542,12.08,12.271,12.322z"/>
</g>
</svg>
